<?xml version="1.0" encoding="UTF-8"?>
<svg id="Calque_1" xmlns="http://www.w3.org/2000/svg" version="1.1" viewBox="0 0 100 100">
  <!-- Generator: Adobe Illustrator 29.1.0, SVG Export Plug-In . SVG Version: 2.1.0 Build 142)  -->
  <defs>
    <style>
      .st0 {
        fill: #fff;
      }
    </style>
  </defs>
  <path class="st0" d="M62,26c-9.9-9.9-26-9.9-35.9,0-9.9,9.9-9.9,26,0,35.9,9.1,9.1,23.5,9.9,33.6,2l16.7,16.6c1.3,1,3.2.7,4.2-.6.8-1.1.8-2.5,0-3.6l-16.6-16.7c8-10.1,7.2-24.6-2-33.7h0ZM57.7,57.7c-7.6,7.6-19.8,7.6-27.4,0h0c-3.7-3.6-5.7-8.5-5.7-13.7,0-10.8,8.7-19.5,19.5-19.5s19.5,8.7,19.5,19.5-2.1,10.1-5.8,13.7h-.1Z"/>
</svg>